<svg width="8" height="14" viewBox="0 0 8 14" fill="none" xmlns="http://www.w3.org/2000/svg">
<path d="M7.43002 6.46512L1.64486 0.364517C1.51105 0.223303 1.33244 0.145508 1.14198 0.145508C0.951529 0.145508 0.772912 0.223303 0.639109 0.364517L0.213071 0.813681C-0.0641539 1.10636 -0.0641539 1.58205 0.213071 1.87429L5.07102 6.99721L0.207681 12.1258C0.0738775 12.267 0 12.4553 0 12.656C0 12.857 0.0738775 13.0452 0.207681 13.1865L0.633718 13.6356C0.767628 13.7768 0.946139 13.8546 1.13659 13.8546C1.32705 13.8546 1.50566 13.7768 1.63947 13.6356L7.43002 7.52941C7.56414 7.38775 7.63781 7.19861 7.63738 6.99755C7.63781 6.7957 7.56414 6.60667 7.43002 6.46512Z" fill="white"/>
</svg>
