<svg width="16" height="17" viewBox="0 0 16 17" fill="none" xmlns="http://www.w3.org/2000/svg">
<g clip-path="url(#clip0)">
<path d="M12.6451 10.5345C12.3176 10.1935 11.9225 10.0111 11.5037 10.0111C11.0884 10.0111 10.6899 10.1901 10.3488 10.5312L9.28172 11.5949C9.19392 11.5476 9.10612 11.5037 9.0217 11.4598C8.90013 11.399 8.78532 11.3416 8.68739 11.2808C7.68782 10.646 6.77943 9.81863 5.90819 8.74815C5.48608 8.2146 5.20242 7.76547 4.99643 7.30959C5.27333 7.05632 5.52998 6.79292 5.77987 6.53966C5.87442 6.4451 5.96898 6.34717 6.06353 6.25262C6.77268 5.54347 6.77268 4.62495 6.06353 3.9158L5.14163 2.9939C5.03695 2.88922 4.92889 2.78116 4.82758 2.67309C4.62497 2.46373 4.41222 2.2476 4.19272 2.04499C3.86516 1.72081 3.47344 1.54858 3.06146 1.54858C2.64947 1.54858 2.251 1.72081 1.91331 2.04499C1.90993 2.04837 1.90993 2.04837 1.90655 2.05174L0.758404 3.21002C0.326159 3.64227 0.0796448 4.16907 0.0256142 4.78029C-0.0554316 5.76634 0.234983 6.68486 0.457859 7.28595C1.00492 8.76166 1.82213 10.1293 3.04119 11.5949C4.52028 13.361 6.29991 14.7557 8.33281 15.7384C9.1095 16.1064 10.1462 16.5421 11.3045 16.6164C11.3754 16.6197 11.4497 16.6231 11.5172 16.6231C12.2973 16.6231 12.9524 16.3428 13.4657 15.7856C13.4691 15.7789 13.4758 15.7755 13.4792 15.7687C13.6548 15.556 13.8574 15.3635 14.0702 15.1575C14.2154 15.0191 14.364 14.8739 14.5092 14.7219C14.8435 14.3741 15.0191 13.9689 15.0191 13.5535C15.0191 13.1348 14.8401 12.7329 14.499 12.3952L12.6451 10.5345ZM13.8541 14.0904C13.8507 14.0904 13.8507 14.0938 13.8541 14.0904C13.7224 14.2323 13.5873 14.3606 13.4421 14.5024C13.2226 14.7118 12.9997 14.9313 12.7903 15.1778C12.4493 15.5425 12.0474 15.7147 11.5206 15.7147C11.47 15.7147 11.4159 15.7147 11.3653 15.7113C10.3623 15.6472 9.43031 15.2555 8.73129 14.9211C6.81996 13.9959 5.14163 12.6823 3.74697 11.0174C2.59544 9.62953 1.82551 8.3463 1.31559 6.96852C1.00154 6.12767 0.886726 5.47255 0.93738 4.85458C0.971149 4.45948 1.12311 4.13192 1.40339 3.85164L2.55492 2.70011C2.72039 2.54477 2.89599 2.46035 3.06821 2.46035C3.28096 2.46035 3.45318 2.58867 3.56124 2.69673C3.56462 2.70011 3.56799 2.70349 3.57137 2.70686C3.77736 2.89935 3.97322 3.09859 4.17921 3.31133C4.2839 3.41939 4.39196 3.52745 4.50002 3.63889L5.42192 4.56079C5.77987 4.91874 5.77987 5.24968 5.42192 5.60763C5.32399 5.70556 5.22943 5.80349 5.1315 5.89804C4.84784 6.18846 4.57769 6.45861 4.2839 6.72201C4.27714 6.72876 4.27039 6.73214 4.26701 6.73889C3.9766 7.02931 4.03063 7.31297 4.09141 7.50545C4.09479 7.51558 4.09817 7.52571 4.10154 7.53584C4.3413 8.11667 4.679 8.66373 5.19229 9.31548L5.19566 9.31885C6.12769 10.467 7.11037 11.3619 8.19436 12.0474C8.33281 12.1352 8.47464 12.2061 8.60972 12.2736C8.73129 12.3344 8.8461 12.3918 8.94403 12.4526C8.95754 12.4594 8.97105 12.4695 8.98456 12.4763C9.09937 12.5337 9.20743 12.5607 9.31887 12.5607C9.59915 12.5607 9.77475 12.3851 9.83216 12.3277L10.9871 11.1728C11.1019 11.058 11.2842 10.9195 11.497 10.9195C11.7063 10.9195 11.8786 11.0512 11.9833 11.166C11.9866 11.1694 11.9866 11.1694 11.99 11.1728L13.8507 13.0335C14.1985 13.3779 14.1985 13.7325 13.8541 14.0904Z" fill="#FF6537"/>
</g>
<defs>
<clipPath id="clip0">
<rect width="16" height="16" fill="white" transform="translate(0 0.623047)"/>
</clipPath>
</defs>
</svg>
