<svg width="21" height="35" viewBox="0 0 21 35" fill="none" xmlns="http://www.w3.org/2000/svg">
<path d="M0.558536 18.8656L16.134 34.4409C16.4943 34.8014 16.9752 35 17.4879 35C18.0007 35 18.4816 34.8014 18.8418 34.4409L19.9888 33.2941C20.7352 32.5469 20.7352 31.3324 19.9888 30.5863L6.90972 17.5072L20.0034 4.41357C20.3636 4.05304 20.5625 3.57243 20.5625 3.05995C20.5625 2.54691 20.3636 2.0663 20.0034 1.70549L18.8563 0.559032C18.4958 0.198505 18.0152 -0.000110849 17.5024 -0.000110894C16.9897 -0.000110939 16.5088 0.198505 16.1485 0.559032L0.558536 16.1485C0.197441 16.5101 -0.000891065 16.993 0.000247577 17.5063C-0.000891155 18.0217 0.197441 18.5043 0.558536 18.8656Z" fill="#FF6537"/>
</svg>
