<svg width="42" height="24" viewBox="0 0 42 24" fill="currentColor" xmlns="http://www.w3.org/2000/svg">
    <path class="vk"
          d="M34.2913 13.6433C33.6232 12.8105 33.8143 12.44 34.2913 11.6957C34.2999 11.6872 39.815 4.16538 40.3833 1.61449L40.3867 1.61279C40.6691 0.683183 40.3867 0 39.0213 0H34.503C33.3528 0 32.8225 0.586314 32.5384 1.24231C32.5384 1.24231 30.2379 6.67718 26.9836 10.2002C25.9332 11.2181 25.4477 11.5444 24.8743 11.5444C24.5919 11.5444 24.1528 11.2181 24.1528 10.2885V1.61279C24.1528 0.497941 23.8308 0 22.8786 0H15.7742C15.0527 0 14.6239 0.520035 14.6239 1.00438C14.6239 2.06144 16.2511 2.30447 16.4199 5.27852V11.7314C16.4199 13.1453 16.1599 13.4053 15.583 13.4053C14.0471 13.4053 10.3192 7.94837 8.11006 1.70286C7.66409 0.491144 7.22846 0.00169934 6.06963 0.00169934H1.54969C0.260004 0.00169934 0 0.588013 0 1.244C0 2.40304 1.53592 8.1659 7.14236 15.7795C10.8788 20.9764 16.1409 23.7924 20.9277 23.7924C23.805 23.7924 24.1563 23.167 24.1563 22.0913C24.1563 17.1255 23.8963 16.6564 25.3375 16.6564C26.0056 16.6564 27.1558 16.9827 29.8419 19.4894C32.912 22.4618 33.4165 23.7924 35.135 23.7924H39.6532C40.9412 23.7924 41.5938 23.167 41.2184 21.9332C40.3592 19.3382 34.553 14.0001 34.2913 13.6433Z"/>
</svg>
