<svg viewBox="0 0 23 14" fill="currentColor"
     xmlns="http://www.w3.org/2000/svg">
    <path d="M19.0859 7.53367C18.714 7.07867 18.8204 6.87624 19.0859 6.46953C19.0907 6.46489 22.1603 2.35503 22.4766 0.961244L22.4785 0.960316C22.6357 0.452387 22.4785 0.0791016 21.7185 0.0791016H19.2037C18.5636 0.0791016 18.2684 0.399459 18.1103 0.757887C18.1103 0.757887 16.8299 3.72746 15.0186 5.65239C14.434 6.2086 14.1637 6.38689 13.8446 6.38689C13.6874 6.38689 13.443 6.2086 13.443 5.70067V0.960316C13.443 0.351173 13.2638 0.0791016 12.7338 0.0791016H8.7796C8.37804 0.0791016 8.13941 0.363245 8.13941 0.627887C8.13941 1.20546 9.04506 1.33824 9.13898 2.96324V6.48903C9.13898 7.2616 8.99427 7.40367 8.67322 7.40367C7.81835 7.40367 5.74349 4.42203 4.51391 1.00953C4.26569 0.347459 4.02322 0.0800301 3.37824 0.0800301H0.86253C0.144713 0.0800301 0 0.400387 0 0.758816C0 1.3921 0.854863 4.54089 3.9753 8.70089C6.05496 11.5405 8.98373 13.0791 11.648 13.0791C13.2494 13.0791 13.4449 12.7374 13.4449 12.1496C13.4449 9.43632 13.3002 9.18003 14.1024 9.18003C14.4742 9.18003 15.1144 9.35832 16.6094 10.728C18.3182 12.352 18.599 13.0791 19.5555 13.0791H22.0702C22.7871 13.0791 23.1503 12.7374 22.9414 12.0632C22.4632 10.6453 19.2315 7.72867 19.0859 7.53367Z"/>
</svg>
